<svg width="0" height="0" class="hidden">
  <symbol xmlns="http://www.w3.org/2000/svg" viewBox="0 0 511.92 511.92" id="icon-send">
    <path d="M505.77 46.551a16.889 16.889 0 0 0-17.109-2.697L56.482 218.293a8.538 8.538 0 0 0 6.4 15.83l412.86-166.588-204.8 241.545a8.534 8.534 0 1 0 13.022 11.034L491.861 74.899l-27.785 139.469-27.989 187.025a8.536 8.536 0 0 1-4.267 6.204 8.066 8.066 0 0 1-7.194.333l-116.369-45.756-55.842-23.381a8.533 8.533 0 0 0-11.17 4.565 8.19 8.19 0 0 0-.358 1.801h-.205l-27.725 107.059-39.782-138.965L380.535 158.8a8.533 8.533 0 1 0-10.189-13.653L161.92 300.324 11.682 239.507a8.534 8.534 0 0 0-6.4 15.821l151.04 61.116 40.277 140.612a16.921 16.921 0 0 0 16.316 12.228h.196a16.768 16.768 0 0 0 11.093-4.463c.298-.179.583-.379.853-.597l82.483-84.343 110.592 43.853a24.865 24.865 0 0 0 21.939-1.229 25.524 25.524 0 0 0 12.86-18.526l27.913-186.675 30.72-154.121a17.16 17.16 0 0 0-5.794-16.632zM236.877 427.786l18.014-69.436 28.211 11.844 7.27 2.884-53.495 54.708z"></path>
  </symbol>
   <symbol xmlns="http://www.w3.org/2000/svg" viewBox="0 0 512 512" id="icon-location">
    <path d="M256 0C156.748 0 76 80.748 76 180c0 33.534 9.289 66.26 26.869 94.652l142.885 230.257A15 15 0 0 0 258.499 512h.119a14.997 14.997 0 0 0 12.75-7.292L410.611 272.22C427.221 244.428 436 212.539 436 180 436 80.748 355.252 0 256 0zm128.866 256.818L258.272 468.186l-129.905-209.34C113.734 235.214 105.8 207.95 105.8 180c0-82.71 67.49-150.2 150.2-150.2S406.1 97.29 406.1 180c0 27.121-7.411 53.688-21.234 76.818z"></path>
    <path d="M256 90c-49.626 0-90 40.374-90 90 0 49.309 39.717 90 90 90 50.903 0 90-41.233 90-90 0-49.626-40.374-90-90-90zm0 150.2c-33.257 0-60.2-27.033-60.2-60.2 0-33.084 27.116-60.2 60.2-60.2s60.1 27.116 60.1 60.2c0 32.683-26.316 60.2-60.1 60.2z"></path>
  </symbol>
  <symbol xmlns="http://www.w3.org/2000/svg" viewBox="0 0 512 512" id="icon-calendar">
    <path d="M452 40h-24V0h-40v40H124V0H84v40H60C26.916 40 0 66.916 0 100v352c0 33.084 26.916 60 60 60h392c33.084 0 60-26.916 60-60V100c0-33.084-26.916-60-60-60zm20 412c0 11.028-8.972 20-20 20H60c-11.028 0-20-8.972-20-20V188h432v264zm0-304H40v-48c0-11.028 8.972-20 20-20h24v40h40V80h264v40h40V80h24c11.028 0 20 8.972 20 20v48z"></path>
    <path d="M76 230h40v40H76zm80 0h40v40h-40zm80 0h40v40h-40zm80 0h40v40h-40zm80 0h40v40h-40zM76 310h40v40H76zm80 0h40v40h-40zm80 0h40v40h-40zm80 0h40v40h-40zM76 390h40v40H76zm80 0h40v40h-40zm80 0h40v40h-40zm80 0h40v40h-40zm80-80h40v40h-40z"></path>
  </symbol>
</svg>